<svg width="30" height="30" viewBox="0 0 30 30" fill="none" xmlns="http://www.w3.org/2000/svg">
<g id="add">
<path d="M0.192917 14.6647C0.192917 13.8362 0.86449 13.1647 1.69292 13.1647H27.6929C28.5213 13.1647 29.1929 13.8362 29.1929 14.6647C29.1929 15.4931 28.5213 16.1647 27.6929 16.1647H1.69292C0.86449 16.1647 0.192917 15.4931 0.192917 14.6647Z" fill="#FFFDFD"/>
<path d="M14.6929 0.164673C15.5213 0.164673 16.1929 0.836246 16.1929 1.66467L16.1929 27.6647C16.1929 28.4931 15.5213 29.1647 14.6929 29.1647C13.8645 29.1647 13.1929 28.4931 13.1929 27.6647L13.1929 1.66467C13.1929 0.836246 13.8645 0.164673 14.6929 0.164673Z" fill="#FFFDFD"/>
</g>
</svg>
