<svg width="35" height="28" viewBox="0 0 35 28" fill="none" xmlns="http://www.w3.org/2000/svg">
<path d="M26.2719 1.16797C26.3897 0.99357 26.6268 0.947713 26.8012 1.06543C26.9756 1.18324 27.0215 1.42029 26.9037 1.59473L9.91055 26.7568C9.79274 26.931 9.5556 26.977 9.38126 26.8594C9.20688 26.7416 9.16106 26.5045 9.27872 26.3301L26.2719 1.16797Z" stroke="white" stroke-width="2"/>
<path d="M4.33008 0.849609C4.61558 0.849694 4.86746 1.0366 4.95117 1.30957L7.42285 9.36816C7.54198 9.75678 7.25118 10.1503 6.84473 10.1504C6.57701 10.1504 6.34074 9.97347 6.26465 9.7168L5.6377 7.60156H2.82129L2.19434 9.7168C2.11827 9.97335 1.8828 10.1502 1.61523 10.1504C1.20871 10.1504 0.917921 9.75683 1.03711 9.36816L3.50781 1.30957C3.59154 1.03654 3.8443 0.849609 4.12988 0.849609H4.33008ZM9.35938 0.849609C9.63724 0.849681 9.88471 1.02711 9.97461 1.29004L12.3145 8.13574L14.6562 1.29004C14.7462 1.02705 14.9935 0.849609 15.2715 0.849609H15.5C15.859 0.849609 16.1504 1.14102 16.1504 1.5V9.57422C16.1504 9.89219 15.8922 10.1504 15.5742 10.1504C15.2563 10.1504 14.998 9.89218 14.998 9.57422V3.84863L12.9844 9.71094C12.8942 9.97348 12.6467 10.1504 12.3691 10.1504H12.2607C11.9833 10.1503 11.7366 9.97339 11.6465 9.71094L9.63184 3.84766V9.57422C9.63184 9.89219 9.37364 10.1504 9.05566 10.1504C8.73786 10.1502 8.48047 9.89207 8.48047 9.57422V1.5C8.48047 1.14115 8.77109 0.84983 9.12988 0.849609H9.35938ZM3.19727 6.33398H5.26172L4.22949 2.85156L3.19727 6.33398Z" fill="white" stroke="white" stroke-width="0.3"/>
<path d="M22.5527 17.8496C23.1661 17.8496 23.6823 17.9818 24.0898 18.2578H24.0889C24.4927 18.5265 24.7923 18.8908 24.9854 19.3477C25.1761 19.7991 25.2695 20.3 25.2695 20.8477C25.2695 21.3953 25.1759 21.8974 24.9854 22.3516C24.795 22.8109 24.4984 23.1795 24.0977 23.4541V23.4551C23.6903 23.7311 23.1763 23.8633 22.5674 23.8633H21.2207C21.1665 23.8632 21.1147 23.8527 21.0645 23.8398V26.543C21.0643 26.8783 20.7924 27.1504 20.457 27.1504C20.1219 27.1502 19.8498 26.8781 19.8496 26.543V18.5C19.8496 18.141 20.141 17.8496 20.5 17.8496H22.5527ZM27.3281 17.8496C27.6057 17.8496 27.8532 18.0266 27.9434 18.2891L30.2969 25.1377L32.6504 18.2891C32.7406 18.0267 32.9872 17.8498 33.2646 17.8496H33.5C33.859 17.8496 34.1504 18.141 34.1504 18.5V26.5723C34.1503 26.8913 33.8913 27.1503 33.5723 27.1504C33.2532 27.1504 32.9942 26.8914 32.9941 26.5723V20.8418L30.9678 26.7119C30.8773 26.9739 30.6307 27.1504 30.3535 27.1504H30.2402C29.963 27.1504 29.7155 26.974 29.625 26.7119L27.5986 20.8418V26.5723C27.5986 26.8913 27.3405 27.1502 27.0215 27.1504C26.7024 27.1504 26.4434 26.8914 26.4434 26.5723V18.5C26.4434 18.141 26.7348 17.8496 27.0938 17.8496H27.3281ZM21.415 19.1172C21.2217 19.1172 21.0645 19.2735 21.0645 19.4668V22.6182C21.1146 22.6053 21.1666 22.5957 21.2207 22.5957H22.5381C22.9243 22.5957 23.2173 22.516 23.4307 22.3711C23.6507 22.2217 23.8102 22.0212 23.9102 21.7646V21.7637C24.0153 21.4968 24.0693 21.1923 24.0693 20.8477C24.0693 20.5031 24.016 20.2001 23.9111 19.9365L23.9102 19.9355C23.8105 19.6797 23.6508 19.4823 23.4297 19.3389L23.4287 19.3379C23.2127 19.1952 22.9152 19.1172 22.5234 19.1172H21.415Z" fill="white" stroke="white" stroke-width="0.3"/>
</svg>
