<svg width="39" height="33" viewBox="0 0 39 33" fill="none" xmlns="http://www.w3.org/2000/svg">
<g id="back">
<path d="M12.0836 2.85894C12.9193 1.16515 14.6637 0 16.6802 0H33.0063C35.8355 0 38.1289 2.29346 38.1289 5.12259V27.503C38.1289 30.3321 35.8355 32.6256 33.0063 32.6256H16.6802C14.6637 32.6256 12.9193 31.4604 12.0836 29.7666H16.7709V29.7331C16.9216 29.7552 17.0757 29.7666 17.2326 29.7666H32.1176C33.8586 29.7666 35.27 28.3553 35.27 26.6143V6.0113C35.27 4.2703 33.8586 2.85894 32.1176 2.85894H17.2326C17.0757 2.85894 16.9216 2.87039 16.7709 2.8925V2.85894H12.0836Z" fill="white"/>
<path d="M17.3654 0.609197C15.7015 -0.0497993 13.7459 0.317101 12.4083 1.70777L1.35313 13.2013C-0.457235 15.0835 -0.450116 18.1282 1.36903 20.0018L11.9476 30.8974C13.2882 32.2783 15.239 32.6378 16.897 31.9779L3.89703 18.5883C2.83586 17.4953 2.83171 15.7192 3.88775 14.6213L17.3654 0.609197Z" fill="white"/>
<path d="M14.9799 9.45971C15.5604 8.87922 16.5016 8.87922 17.0821 9.45971L29.3587 21.7363C29.9392 22.3168 29.9392 23.258 29.3587 23.8385C28.7782 24.419 27.837 24.419 27.2565 23.8385L14.9799 11.5619C14.3994 10.9814 14.3994 10.0402 14.9799 9.45971Z" fill="white"/>
<path d="M29.2746 9.45971C29.8551 10.0402 29.8551 10.9814 29.2746 11.5619L16.998 23.8385C16.4175 24.419 15.4763 24.419 14.8958 23.8385C14.3153 23.258 14.3153 22.3168 14.8958 21.7363L27.1724 9.45971C27.7529 8.87921 28.6941 8.87921 29.2746 9.45971Z" fill="white"/>
</g>
</svg>
