<svg width="22" height="16" viewBox="0 0 22 16" fill="none" xmlns="http://www.w3.org/2000/svg">
<g id="bar">
<g id="Vector">
<path d="M5.37778 8C5.37778 7.59834 5.7061 7.27273 6.11111 7.27273H21.2667C21.6717 7.27273 22 7.59834 22 8C22 8.40166 21.6717 8.72727 21.2667 8.72727H6.11111C5.7061 8.72727 5.37778 8.40166 5.37778 8Z" fill="#F8990A"/>
<path d="M5.37778 1.21212C5.37778 0.81046 5.7061 0.484848 6.11111 0.484848H21.2667C21.6717 0.484848 22 0.81046 22 1.21212C22 1.61378 21.6717 1.93939 21.2667 1.93939H6.11111C5.7061 1.93939 5.37778 1.61378 5.37778 1.21212Z" fill="#F8990A"/>
<path d="M5.37778 14.7879C5.37778 14.3862 5.7061 14.0606 6.11111 14.0606H21.2667C21.6717 14.0606 22 14.3862 22 14.7879C22 15.1895 21.6717 15.5152 21.2667 15.5152H6.11111C5.7061 15.5152 5.37778 15.1895 5.37778 14.7879Z" fill="#F8990A"/>
<path d="M2.44444 1.21212C2.44444 1.88156 1.89724 2.42424 1.22222 2.42424C0.547208 2.42424 0 1.88156 0 1.21212C0 0.542685 0.547208 0 1.22222 0C1.89724 0 2.44444 0.542685 2.44444 1.21212Z" fill="#F8990A"/>
<path d="M2.44444 8C2.44444 8.66944 1.89724 9.21212 1.22222 9.21212C0.547208 9.21212 0 8.66944 0 8C0 7.33056 0.547208 6.78788 1.22222 6.78788C1.89724 6.78788 2.44444 7.33056 2.44444 8Z" fill="#F8990A"/>
<path d="M2.44444 14.7879C2.44444 15.4573 1.89724 16 1.22222 16C0.547208 16 0 15.4573 0 14.7879C0 14.1184 0.547208 13.5758 1.22222 13.5758C1.89724 13.5758 2.44444 14.1184 2.44444 14.7879Z" fill="#F8990A"/>
</g>
</g>
</svg>
