<svg width="24" height="35" viewBox="0 0 24 35" fill="none" xmlns="http://www.w3.org/2000/svg">
<path id="calc" fill-rule="evenodd" clip-rule="evenodd" d="M0 4.47999C0 2.00576 2.00576 0 4.48 0H19.52C21.9942 0 24 2.00576 24 4.48V30.08C24 32.5542 21.9942 34.56 19.52 34.56H4.48C2.00576 34.56 0 32.5542 0 30.08V4.47999ZM2.88 4.8C2.88 3.73961 3.73961 2.88 4.8 2.88H19.2C20.2604 2.88 21.12 3.73961 21.12 4.8V9.6C21.12 10.6604 20.2604 11.52 19.2 11.52H4.8C3.73961 11.52 2.88 10.6604 2.88 9.6V4.8ZM5.28 18.56C6.60548 18.56 7.68 17.4855 7.68 16.16C7.68 14.8345 6.60548 13.76 5.28 13.76C3.95452 13.76 2.88 14.8345 2.88 16.16C2.88 17.4855 3.95452 18.56 5.28 18.56ZM7.68 22.72C7.68 24.0455 6.60548 25.12 5.28 25.12C3.95452 25.12 2.88 24.0455 2.88 22.72C2.88 21.3945 3.95452 20.32 5.28 20.32C6.60548 20.32 7.68 21.3945 7.68 22.72ZM5.28 31.68C6.60548 31.68 7.68 30.6055 7.68 29.28C7.68 27.9545 6.60548 26.88 5.28 26.88C3.95452 26.88 2.88 27.9545 2.88 29.28C2.88 30.6055 3.95452 31.68 5.28 31.68ZM14.4 16.16C14.4 17.4855 13.3255 18.56 12 18.56C10.6745 18.56 9.6 17.4855 9.6 16.16C9.6 14.8345 10.6745 13.76 12 13.76C13.3255 13.76 14.4 14.8345 14.4 16.16ZM12 25.12C13.3255 25.12 14.4 24.0455 14.4 22.72C14.4 21.3945 13.3255 20.32 12 20.32C10.6745 20.32 9.6 21.3945 9.6 22.72C9.6 24.0455 10.6745 25.12 12 25.12ZM14.4 29.28C14.4 30.6055 13.3255 31.68 12 31.68C10.6745 31.68 9.6 30.6055 9.6 29.28C9.6 27.9545 10.6745 26.88 12 26.88C13.3255 26.88 14.4 27.9545 14.4 29.28ZM18.72 18.56C20.0455 18.56 21.12 17.4855 21.12 16.16C21.12 14.8345 20.0455 13.76 18.72 13.76C17.3945 13.76 16.32 14.8345 16.32 16.16C16.32 17.4855 17.3945 18.56 18.72 18.56ZM21.12 22.72C21.12 24.0455 20.0455 25.12 18.72 25.12C17.3945 25.12 16.32 24.0455 16.32 22.72C16.32 21.3945 17.3945 20.32 18.72 20.32C20.0455 20.32 21.12 21.3945 21.12 22.72ZM18.72 31.68C20.0455 31.68 21.12 30.6055 21.12 29.28C21.12 27.9545 20.0455 26.88 18.72 26.88C17.3945 26.88 16.32 27.9545 16.32 29.28C16.32 30.6055 17.3945 31.68 18.72 31.68Z" fill="white"/>
</svg>
