<svg width="30" height="26" viewBox="0 0 30 26" fill="none" xmlns="http://www.w3.org/2000/svg">
<g id="div">
<path d="M0 13.25C0 12.4216 0.671573 11.75 1.5 11.75H28.5C29.3284 11.75 30 12.4216 30 13.25C30 14.0784 29.3284 14.75 28.5 14.75H1.5C0.671573 14.75 0 14.0784 0 13.25Z" fill="#FFFDFD"/>
<path d="M17 23.75C17 24.8546 16.1046 25.75 15 25.75C13.8954 25.75 13 24.8546 13 23.75C13 22.6454 13.8954 21.75 15 21.75C16.1046 21.75 17 22.6454 17 23.75Z" fill="white"/>
<path d="M17 2.75C17 3.85457 16.1046 4.75 15 4.75C13.8954 4.75 13 3.85457 13 2.75C13 1.64543 13.8954 0.75 15 0.75C16.1046 0.75 17 1.64543 17 2.75Z" fill="white"/>
</g>
</svg>
