<svg width="24" height="24" viewBox="0 0 24 24" fill="none" xmlns="http://www.w3.org/2000/svg">
<g id="mul">
<path d="M0.43934 22.831C-0.146447 22.2452 -0.146447 21.2955 0.43934 20.7097L20.7097 0.439339C21.2955 -0.146447 22.2452 -0.146446 22.831 0.43934C23.4168 1.02513 23.4168 1.97487 22.831 2.56066L2.56066 22.831C1.97487 23.4168 1.02513 23.4168 0.43934 22.831Z" fill="#FFFDFD"/>
<path d="M0.56335 0.506982C1.14914 -0.0788043 2.09888 -0.0788043 2.68467 0.506982L22.9465 20.7688C23.5323 21.3546 23.5323 22.3043 22.9465 22.8901C22.3607 23.4759 21.4109 23.4759 20.8252 22.8901L0.56335 2.6283C-0.022436 2.04252 -0.0224361 1.09277 0.56335 0.506982Z" fill="#FFFDFD"/>
</g>
</svg>
