<svg width="27" height="28" viewBox="0 0 27 28" fill="none" xmlns="http://www.w3.org/2000/svg">
<path id="perc" d="M4.38123 26.859C4.2068 26.7412 4.16089 26.5043 4.2787 26.3298L21.2722 1.16796C21.39 0.993521 21.6269 0.947616 21.8013 1.06542C21.9758 1.18323 22.0217 1.42014 21.9039 1.59457L4.91038 26.7564C4.79257 26.9309 4.55566 26.9768 4.38123 26.859ZM9 6.96373C9 8.55719 8.50207 9.9633 7.74291 10.9502C6.98458 11.936 6.0062 12.4637 5 12.4637C3.9938 12.4637 3.01542 11.936 2.25709 10.9502C1.49793 9.9633 1 8.55719 1 6.96373C1 5.37026 1.49793 3.96415 2.25709 2.97724C3.01542 1.99141 3.9938 1.46373 5 1.46373C6.0062 1.46373 6.98458 1.99141 7.74291 2.97724C8.50207 3.96415 9 5.37026 9 6.96373ZM25.5 20.9637C25.5 22.5572 25.0021 23.9633 24.2429 24.9502C23.4846 25.936 22.5062 26.4637 21.5 26.4637C20.4938 26.4637 19.5154 25.936 18.7571 24.9502C17.9979 23.9633 17.5 22.5572 17.5 20.9637C17.5 19.3703 17.9979 17.9642 18.7571 16.9772C19.5154 15.9914 20.4938 15.4637 21.5 15.4637C22.5062 15.4637 23.4846 15.9914 24.2429 16.9772C25.0021 17.9642 25.5 19.3703 25.5 20.9637Z" stroke="white" stroke-width="2"/>
</svg>
