<svg width="28" height="28" viewBox="0 0 28 28" fill="none" xmlns="http://www.w3.org/2000/svg">
<g id="sign">
<path d="M4.51069 27.4661C3.97974 27.1086 3.83915 26.3883 4.19668 25.8574L21.2639 0.511767C21.6214 -0.0191819 22.3417 -0.159768 22.8726 0.197762C23.4035 0.555292 23.5441 1.27555 23.1866 1.8065L6.11942 27.1521C5.76189 27.6831 5.04164 27.8236 4.51069 27.4661Z" fill="#FFFDFD"/>
<path d="M17.5 21.3299C17.5 20.7776 17.9477 20.3299 18.5 20.3299H26.5C27.0523 20.3299 27.5 20.7776 27.5 21.3299C27.5 21.8822 27.0523 22.3299 26.5 22.3299H18.5C17.9477 22.3299 17.5 21.8822 17.5 21.3299Z" fill="#FFFDFD"/>
<path d="M0 7.32989C0 6.77761 0.447715 6.32989 1 6.32989H9C9.55228 6.32989 10 6.77761 10 7.32989C10 7.88218 9.55228 8.32989 9 8.32989H1C0.447715 8.32989 0 7.88218 0 7.32989Z" fill="#FFFDFD"/>
<path d="M5 12.3299C4.44772 12.3299 4 11.8822 4 11.3299L4 3.32989C4 2.77761 4.44771 2.32989 5 2.32989C5.55228 2.32989 6 2.77761 6 3.32989L6 11.3299C6 11.8822 5.55228 12.3299 5 12.3299Z" fill="#FFFDFD"/>
</g>
</svg>
